<svg xmlns="http://www.w3.org/2000/svg" width="98.839" height="98.8" viewBox="0 0 98.839 98.8">
  <g id="_20-World" data-name="20-World" transform="translate(0.54 0.575)">
    <path id="Path_1746" data-name="Path 1746" d="M22.154,11.293,16.75,1h5.4L34.312,11.293" transform="translate(8.568 0.005)" fill="rgba(0,0,0,0)" stroke="#20aed5" stroke-linejoin="round" stroke-width="3"/>
    <path id="Path_1747" data-name="Path 1747" d="M56.387,8.632c-8.105,0-44.58,2.316-44.58,2.316L5.053,4H1L2.95,14.024A5.229,5.229,0,0,0,8.279,17.9H34.638L24.55,30.246h7.205L49.047,17.9H60.44c5.4,0,5.4-3.474,5.4-3.474S64.492,8.632,56.387,8.632Z" transform="translate(0.001 1.637)" fill="rgba(0,0,0,0)" stroke="#20aed5" stroke-linejoin="round" stroke-width="3"/>
    <path id="Path_1748" data-name="Path 1748" d="M37,7v4.632h9.263" transform="translate(19.581 3.269)" fill="rgba(0,0,0,0)" stroke="#20aed5" stroke-linejoin="round" stroke-width="3"/>
    <path id="Path_1749" data-name="Path 1749" d="M39.9,41.7h7.719V38.614H42.983L39.9,32.439H36.807l-6.176,6.176H29.088V33.983l7.719-7.719H39.9l4.632-1.544-1.544-3.088H36.807L39.9,17h7.719l1.544,3.088h6.176l6.176-1.544h6.176v1.544L75.4,26.263,76.948,30.9,75.4,32.439v1.544l1.544,1.544v4.632H73.861v3.088l-1.544,4.632H70.773l3.088,3.088v1.544H70.773v6.176H67.685V52.509l-1.544-6.176-4.632,4.632H59.966V44.79L53.79,43.246l1.544,3.088v4.632H50.7l-1.544-4.632H46.071V55.6H53.79v3.088l-4.632,3.088L50.7,64.861V66.4l-4.632,7.719H39.9L38.351,66.4V61.773l-1.544-3.088V57.141H29.088L26,54.053V47.878l9.263-7.719h3.088Z" transform="translate(13.599 8.708)" fill="rgba(0,0,0,0)" stroke="#20aed5" stroke-linejoin="round" stroke-width="3"/>
    <path id="Path_1750" data-name="Path 1750" d="M61.263,50.088,56.632,47,52,50.088V60.9" transform="translate(27.74 25.024)" fill="rgba(0,0,0,0)" stroke="#20aed5" stroke-linejoin="round" stroke-width="3"/>
    <path id="Path_1751" data-name="Path 1751" d="M24.071,27.351v3.088l-4.632,1.544v3.088L17.9,36.614l-1.544,1.544v3.088H11.719v3.088h3.088l1.544,4.632h6.176L25.614,53.6l4.632,4.632L28.7,61.317V64.4L24.071,70.58H20.983l-1.544-9.263-3.088-1.544V53.6l-4.632-6.176L7.088,44.334v-13.9H4V27.351l6.176-6.176L17.586,15" transform="translate(1.633 7.62)" fill="rgba(0,0,0,0)" stroke="#20aed5" stroke-linejoin="round" stroke-width="3"/>
    <path id="Path_1752" data-name="Path 1752" d="M38.055,2.231A47.861,47.861,0,1,1,7.861,24.164" transform="translate(0 0)" fill="rgba(0,0,0,0)" stroke="#20aed5" stroke-linejoin="round" stroke-width="3"/>
  </g>
</svg>
