<svg xmlns="http://www.w3.org/2000/svg" width="110.001" height="90.231" viewBox="0 0 110.001 90.231">
  <g id="Calque_2" data-name="Calque 2" transform="translate(0 -7.21)">
    <path id="Path_1740" data-name="Path 1740" d="M16.874,60.466A36.214,36.214,0,0,0,12.648,65.7a1.675,1.675,0,0,0,.421,2.307,1.775,1.775,0,0,0,.921.277,1.653,1.653,0,0,0,1.386-.743,33.674,33.674,0,0,1,3.838-4.758,1.664,1.664,0,0,0-2.385-2.318Z" transform="translate(1.349 5.763)" fill="#20aed5"/>
    <path id="Path_1741" data-name="Path 1741" d="M68.5,43.193c-1.775.344-3.771.7-6.289,1.109a1.669,1.669,0,1,0,.266,3.327h.266c2.551-.41,4.581-.776,6.4-1.109a1.695,1.695,0,0,0-.643-3.327Z" transform="translate(6.624 3.925)" fill="#20aed5"/>
    <path id="Path_1742" data-name="Path 1742" d="M41.735,48c-2.274.555-4.337,1.109-6.311,1.764a1.664,1.664,0,0,0,.51,3.25,1.564,1.564,0,0,0,.5-.078c1.908-.61,3.893-1.109,6.089-1.7A1.667,1.667,0,0,0,41.735,48Z" transform="translate(3.74 4.448)" fill="#20aed5"/>
    <path id="Path_1743" data-name="Path 1743" d="M19.249,69.289a1.653,1.653,0,0,0-2.351,0L13.182,73l-.355-.355L9.5,69.322A1.687,1.687,0,0,0,7.048,71.64l3.716,3.716L7.048,79.072a1.664,1.664,0,0,0,0,2.363,1.642,1.642,0,0,0,1.176.477A1.686,1.686,0,0,0,9.4,81.434l3.716-3.727.244.255,3.472,3.472a1.642,1.642,0,0,0,1.176.477,1.664,1.664,0,0,0,1.242-.477,1.686,1.686,0,0,0,0-2.363l-3.771-3.716,3.771-3.716a1.675,1.675,0,0,0,0-2.351Z" transform="translate(0.716 6.723)" fill="#20aed5"/>
    <path id="Path_1744" data-name="Path 1744" d="M108.787,25.622A11.735,11.735,0,0,0,110,20.387,13.221,13.221,0,0,0,96.819,7.21h0A13.21,13.21,0,0,0,83.642,20.376a11.879,11.879,0,0,0,.654,3.938l-2.307-.433h-.6L55.048,28.75,28.716,23.881a2.406,2.406,0,0,0-.4,0H28L1.375,28.805A1.653,1.653,0,0,0,0,30.447V95.71a1.686,1.686,0,0,0,.6,1.331,1.686,1.686,0,0,0,1.109.377,1.364,1.364,0,0,0,.3,0l26.4-4.88,26.387,4.88a2.03,2.03,0,0,0,.6,0l26.343-4.869,26.332,4.869a1.408,1.408,0,0,0,.311,0,1.73,1.73,0,0,0,1.109-.377A1.686,1.686,0,0,0,110,95.71V30.447a1.664,1.664,0,0,0-1.364-1.642l-1.431-.266,1.5-2.562a1.409,1.409,0,0,0,.089-.355ZM96.808,40.185,88.046,24.657a2.219,2.219,0,0,0-.1-.244,8.441,8.441,0,0,1-.976-3.993,9.849,9.849,0,1,1,19.7,0,8.551,8.551,0,0,1-.976,3.982,1.109,1.109,0,0,0-.1.244ZM3.328,93.758V31.822l23.292-4.3V59.685c-.51.3-1.009.61-1.5.921a1.664,1.664,0,0,0,.91,3.061,1.553,1.553,0,0,0,.588-.122v25.91ZM30.081,61.592c.743-.4,1.5-.8,2.3-1.176a1.642,1.642,0,0,0,.788-2.218,1.664,1.664,0,0,0-2.218-.8l-.876.433V27.519l23.292,4.3V50.878a1.686,1.686,0,0,0-.754,1.708,1.653,1.653,0,0,0,.754,1.109V93.758l-23.292-4.3Zm26.62-8c1.4-.244,2.8-.488,4.17-.71a1.685,1.685,0,0,0-.532-3.327c-1.2.189-2.418.41-3.638.61V31.822l23.292-4.3V89.455L56.7,93.758Zm49.912-21.74v61.9l-23.292-4.3V48.327a1.952,1.952,0,0,0,.433.067,1.453,1.453,0,0,0,.488-.078A35.825,35.825,0,0,0,90.519,45.8,1.645,1.645,0,1,0,89,42.881,33.119,33.119,0,0,1,83.387,45.1V27.519l2.8.521,9.206,16.349a1.664,1.664,0,0,0,2.895,0l7.21-12.789Z" transform="translate(0 0)" fill="#20aed5"/>
    <path id="Path_1745" data-name="Path 1745" d="M87.88,25.051a6.1,6.1,0,1,0-6.1-6.1A6.1,6.1,0,0,0,87.88,25.051Zm0-8.873a2.773,2.773,0,1,1-2.773,2.773A2.773,2.773,0,0,1,87.88,16.177Z" transform="translate(8.928 0.616)" fill="#20aed5"/>
  </g>
</svg>
