<svg xmlns="http://www.w3.org/2000/svg" width="111" height="94.621" viewBox="0 0 111 94.621">
  <g id="best-price" transform="translate(0.5 -37.663)">
    <path id="Path_1753" data-name="Path 1753" d="M357.182,46.828l-19.143-7.975a8.649,8.649,0,0,0-6.608,0l-9.191,3.828a1.611,1.611,0,0,0,1.239,2.975l9.191-3.829a5.405,5.405,0,0,1,4.13,0L355.942,49.8a4.861,4.861,0,0,1,3.065,4.449v68.911a5.006,5.006,0,0,1-5.13,4.86h-2.613a1.611,1.611,0,0,0,0,3.223h2.613a8.23,8.23,0,0,0,8.353-8.082V54.252A8.075,8.075,0,0,0,357.182,46.828Z" transform="translate(-252.229)" fill="#20aed5" stroke="#20aed5" stroke-width="1"/>
    <path id="Path_1754" data-name="Path 1754" d="M92.011,154.65H64.937a6.922,6.922,0,0,0,.093-9.037,6.96,6.96,0,0,0,1.759-1.279,6.924,6.924,0,0,0,.275-9.5A6.927,6.927,0,0,0,68.843,124.2a7,7,0,0,0,1.519-1.149,6.933,6.933,0,0,0-4.9-11.833H58.233V80.878A4.861,4.861,0,0,1,61.3,76.43l2.931-1.22a1.611,1.611,0,1,0-1.239-2.975l-2.932,1.221a8.074,8.074,0,0,0-5.047,7.423v30.341H48.278c2.242-7.085,2.051-14.479-.565-23.06a6.222,6.222,0,0,0-2.287-3.219,6.315,6.315,0,0,0-10.048,5.413c.5,9.689-3.965,13.024-10.151,17.64a74.413,74.413,0,0,0-6.45,5.22V111.1a1.611,1.611,0,0,0-1.611-1.611H1.611A1.611,1.611,0,0,0,0,111.1v45.7a1.611,1.611,0,0,0,1.611,1.611H17.166a1.611,1.611,0,0,0,1.611-1.611v-4.054a13.37,13.37,0,0,1,7.467,2.565,8.187,8.187,0,0,0,4.949,1.694H59.611a8.58,8.58,0,0,0,3.753.866H92.011a1.611,1.611,0,1,0,0-3.222Zm-63.806-1.9a17.09,17.09,0,0,0-9.428-3.247V130.692a1.611,1.611,0,0,0-3.223,0v24.5H3.223V112.712H15.555v10.959a1.611,1.611,0,0,0,3.223,0V117.79a55.244,55.244,0,0,1,8.377-7.214c6.189-4.618,12.035-8.981,11.442-20.39a3.094,3.094,0,0,1,4.923-2.648A3.022,3.022,0,0,1,44.631,89.1c2.665,8.741,2.623,16.1-.131,23.144a1.611,1.611,0,0,0,1.5,2.2H65.459a3.709,3.709,0,1,1,0,7.419H58.839a1.611,1.611,0,1,0,0,3.223h4.817a3.709,3.709,0,1,1,0,7.419H58.839a1.611,1.611,0,1,0,0,3.223h3.048a3.709,3.709,0,0,1,0,7.419H57.071a1.611,1.611,0,1,0,0,3.223h2.66a3.71,3.71,0,0,1,2.624,6.331,3.922,3.922,0,0,1-2.462,1.083l-28.7,0a4.955,4.955,0,0,1-2.988-1.031Z" transform="translate(0 -26.627)" fill="#20aed5" stroke="#20aed5" stroke-width="1"/>
    <path id="Path_1755" data-name="Path 1755" d="M366.209,93.814a6.141,6.141,0,1,0-6.141,6.141A6.148,6.148,0,0,0,366.209,93.814Zm-9.059,0a2.918,2.918,0,1,1,2.918,2.918A2.921,2.921,0,0,1,357.151,93.814Z" transform="translate(-277.889 -38.846)" fill="#20aed5" stroke="#20aed5" stroke-width="1"/>
    <path id="Path_1756" data-name="Path 1756" d="M354.768,272.83h-2.89a2.764,2.764,0,0,1-2.761-2.761,1.611,1.611,0,0,0-3.223,0,5.989,5.989,0,0,0,5.817,5.979v3.566a1.611,1.611,0,1,0,3.223,0v-3.566a5.989,5.989,0,0,0,5.817-5.979v-2.231a4.751,4.751,0,0,0-3.291-4.529l-7.279-2.364a1.536,1.536,0,0,1-1.064-1.464v-3.194a2.245,2.245,0,0,1,2.242-2.242h3.927a2.245,2.245,0,0,1,2.242,2.242,1.611,1.611,0,0,0,3.223,0,5.471,5.471,0,0,0-5.465-5.465h-.353V247.26a1.611,1.611,0,0,0-3.223,0v3.562h-.352a5.471,5.471,0,0,0-5.465,5.465v3.194a4.75,4.75,0,0,0,3.291,4.529l7.279,2.364a1.536,1.536,0,0,1,1.064,1.464v2.231A2.763,2.763,0,0,1,354.768,272.83Z" transform="translate(-271.582 -162.882)" fill="#20aed5" stroke="#20aed5" stroke-width="1"/>
  </g>
</svg>
