<svg xmlns="http://www.w3.org/2000/svg" xmlns:xlink="http://www.w3.org/1999/xlink" width="61.708" height="70" viewBox="0 0 61.708 70">
  <defs>
    <filter id="Icon_map-bus-station" x="0" y="0" width="61.708" height="70" filterUnits="userSpaceOnUse">
      <feOffset dy="3" input="SourceAlpha"/>
      <feGaussianBlur stdDeviation="3" result="blur"/>
      <feFlood flood-opacity="0.161"/>
      <feComposite operator="in" in2="blur"/>
      <feComposite in="SourceGraphic"/>
    </filter>
  </defs>
  <g transform="matrix(1, 0, 0, 1, 0, 0)" filter="url(#Icon_map-bus-station)">
    <path id="Icon_map-bus-station-2" data-name="Icon map-bus-station" d="M41.553,26.006H8.231a1.8,1.8,0,0,1-1.77-1.784,2.32,2.32,0,0,1,.061-.481L8.3,11.359c.151-.8.875-.963,1.742-.963H39.752c.861,0,1.591.145,1.74.946l1.773,12.609a1.839,1.839,0,0,1,.062.391,1.709,1.709,0,0,1-1.774,1.664ZM40.22,39.894a3.311,3.311,0,1,1,3.388-3.318A3.353,3.353,0,0,1,40.22,39.894Zm-30.7,0a3.312,3.312,0,1,1,3.4-3.318,3.351,3.351,0,0,1-3.4,3.318ZM15.368,3.112H36.181V6.234H15.368A1.561,1.561,0,0,1,15.368,3.112ZM44.717,7.888c-.608-2.927-2.383-4.106-5.279-5.285A47.95,47.95,0,0,0,24.808.023,48.292,48.292,0,0,0,10.119,2.6c-2.9,1.179-4.641,2.357-5.244,5.285L2.88,24.184V46.82H6V48.9c0,4.163,5.2,4.163,5.2,0V46.82H37.222V48.9c0,4.163,6.244,4.163,6.244,0V46.82h3.122V24.184Z" transform="translate(6.12 5.98)" fill="#fff"/>
  </g>
</svg>
