<svg xmlns="http://www.w3.org/2000/svg" xmlns:xlink="http://www.w3.org/1999/xlink" width="1147" height="158.211" viewBox="0 0 1147 158.211">
  <defs>
    <filter id="Path_1615" x="0" y="0" width="1147" height="158.211" filterUnits="userSpaceOnUse">
      <feOffset dy="3" input="SourceAlpha"/>
      <feGaussianBlur stdDeviation="3" result="blur"/>
      <feFlood flood-opacity="0.161"/>
      <feComposite operator="in" in2="blur"/>
      <feComposite in="SourceGraphic"/>
    </filter>
  </defs>
  <g id="Group_1450" data-name="Group 1450" transform="translate(-522 -561.468)">
    <g transform="matrix(1, 0, 0, 1, 522, 561.47)" filter="url(#Path_1615)">
      <path id="Path_1615-2" data-name="Path 1615" d="M-526.759-2417.818c-3.6-7.449-4.054-10.48-10-10.48-8.176-1.443-11.02,10.48-11.02,10.48h-913.48V-2558.03h913.536s-.024,10.482,9.953,10.43,10.735-10.276,10.735-10.276H-332.26v140.057Z" transform="translate(1470.26 2564.03)" fill="#fff"/>
    </g>
    <g id="Group_1449" data-name="Group 1449" transform="translate(135 -219.033)">
      <path id="Path_1616" data-name="Path 1616" d="M-412.918-2534.93v6.584" transform="translate(1732.403 3340.648)" fill="none" stroke="#c5c5c5" stroke-width="2"/>
      <path id="Path_1616-2" data-name="Path 1616" d="M-412.918-2534.93v6.584" transform="translate(1732.403 3351.225)" fill="none" stroke="#c5c5c5" stroke-width="2"/>
      <path id="Path_1616-3" data-name="Path 1616" d="M-412.918-2534.93v6.584" transform="translate(1732.403 3361.802)" fill="none" stroke="#c5c5c5" stroke-width="2"/>
      <path id="Path_1616-4" data-name="Path 1616" d="M-412.918-2534.93v6.584" transform="translate(1732.403 3372.379)" fill="none" stroke="#c5c5c5" stroke-width="2"/>
      <path id="Path_1616-5" data-name="Path 1616" d="M-412.918-2534.93v6.584" transform="translate(1732.403 3382.956)" fill="none" stroke="#c5c5c5" stroke-width="2"/>
      <path id="Path_1616-6" data-name="Path 1616" d="M-412.918-2534.93v6.584" transform="translate(1732.403 3393.533)" fill="none" stroke="#c5c5c5" stroke-width="2"/>
      <path id="Path_1616-7" data-name="Path 1616" d="M-412.918-2534.93v6.584" transform="translate(1732.403 3404.11)" fill="none" stroke="#c5c5c5" stroke-width="2"/>
      <path id="Path_1616-8" data-name="Path 1616" d="M-412.918-2534.93v6.584" transform="translate(1732.403 3414.687)" fill="none" stroke="#c5c5c5" stroke-width="2"/>
      <path id="Path_1616-9" data-name="Path 1616" d="M-412.918-2534.93v6.584" transform="translate(1732.403 3425.264)" fill="none" stroke="#c5c5c5" stroke-width="2"/>
      <path id="Path_1616-10" data-name="Path 1616" d="M-412.918-2534.93v6.584" transform="translate(1732.403 3435.841)" fill="none" stroke="#c5c5c5" stroke-width="2"/>
    </g>
  </g>
</svg>
