<svg xmlns="http://www.w3.org/2000/svg" width="20.771" height="21.965" viewBox="0 0 20.771 21.965">
  <g id="Group_1240" data-name="Group 1240" transform="translate(0 0)">
    <path id="Path_1597" data-name="Path 1597" d="M6.491,21.651v-7.3a2.694,2.694,0,0,1-1.3-2.34V6.507a2.874,2.874,0,0,1,1.3-2.34V3.753A2.686,2.686,0,0,0,3.895,1,2.686,2.686,0,0,0,1.3,3.753a2.686,2.686,0,0,0,2.6,2.753H1.3A1.44,1.44,0,0,0,0,7.884V13.39a1.44,1.44,0,0,0,1.3,1.377v6.884Z" transform="translate(0 0.314)" fill="#20aed5"/>
    <path id="Path_1598" data-name="Path 1598" d="M16.193,6.507H13.6a2.686,2.686,0,0,0,2.6-2.753A2.686,2.686,0,0,0,13.6,1,2.686,2.686,0,0,0,11,3.753v.413a2.874,2.874,0,0,1,1.3,2.34v5.507a2.694,2.694,0,0,1-1.3,2.34v7.3h5.193V14.767a1.44,1.44,0,0,0,1.3-1.377V7.884A1.44,1.44,0,0,0,16.193,6.507Z" transform="translate(3.28 0.314)" fill="#20aed5"/>
    <path id="Path_1599" data-name="Path 1599" d="M11.193,2.736a2.793,2.793,0,0,1-1.28,2.436,2.469,2.469,0,0,1-2.63,0A2.793,2.793,0,0,1,6,2.738,2.674,2.674,0,0,1,8.6.045a2.674,2.674,0,0,1,2.6,2.691Z" transform="translate(1.789 -0.045)" fill="#20aed5"/>
    <path id="Path_1600" data-name="Path 1600" d="M11.491,4H6.3A1.44,1.44,0,0,0,5,5.377v5.507A1.44,1.44,0,0,0,6.3,12.26v8.26h5.193V12.26a1.44,1.44,0,0,0,1.3-1.377V5.377A1.44,1.44,0,0,0,11.491,4Z" transform="translate(1.491 1.445)" fill="#20aed5"/>
  </g>
</svg>
