<svg xmlns="http://www.w3.org/2000/svg" width="8.28" height="23.35" viewBox="0 0 8.28 23.35">
  <g id="Group_1242" data-name="Group 1242" transform="translate(0 0)">
    <path id="Path_1599" data-name="Path 1599" d="M11.52,2.906A2.969,2.969,0,0,1,10.159,5.5a2.625,2.625,0,0,1-2.8,0A2.969,2.969,0,0,1,6,2.908,2.843,2.843,0,0,1,8.76.045a2.843,2.843,0,0,1,2.76,2.861Z" transform="translate(-4.62 -0.045)" fill="#20aed5"/>
    <path id="Path_1600" data-name="Path 1600" d="M11.9,4H6.38A1.531,1.531,0,0,0,5,5.464v5.854a1.531,1.531,0,0,0,1.38,1.464v8.781H11.9V12.781a1.531,1.531,0,0,0,1.38-1.464V5.464A1.531,1.531,0,0,0,11.9,4Z" transform="translate(-5 1.788)" fill="#20aed5"/>
  </g>
</svg>
