<svg xmlns="http://www.w3.org/2000/svg" xmlns:xlink="http://www.w3.org/1999/xlink" width="70.16" height="70.474" viewBox="0 0 70.16 70.474">
  <defs>
    <linearGradient id="linear-gradient" x1="0.5" y1="1" x2="0.5" gradientUnits="objectBoundingBox">
      <stop offset="0" stop-color="#20b038"/>
      <stop offset="1" stop-color="#60d66a"/>
    </linearGradient>
  </defs>
  <g id="whatsapp" transform="translate(-7.792 -7.736)">
    <path id="Path_1651" data-name="Path 1651" d="M103.5,170.846l4.785-17.47A33.7,33.7,0,1,1,137.5,170.261h-.015a33.713,33.713,0,0,1-16.115-4.1Zm0,0" transform="translate(-94.488 -93.856)" fill="url(#linear-gradient)"/>
    <g id="Group_1351" data-name="Group 1351" transform="translate(7.792 7.736)">
      <path id="Path_1652" data-name="Path 1652" d="M157.961,107.559A34.936,34.936,0,0,0,102.979,149.7l-4.956,18.1,18.519-4.856a34.914,34.914,0,0,0,16.694,4.251h.015a34.936,34.936,0,0,0,24.711-59.628ZM133.25,161.289h-.011a29,29,0,0,1-14.777-4.047l-1.061-.629-10.989,2.882,2.934-10.711-.691-1.1a29.036,29.036,0,1,1,24.6,13.6Zm0,0" transform="translate(-98.023 -97.317)" fill="#fff" fill-rule="evenodd"/>
      <path id="Path_1653" data-name="Path 1653" d="M210.4,205.386c-.873-.436-5.164-2.549-5.964-2.84s-1.382-.436-1.964.438-2.254,2.838-2.764,3.42-1.018.656-1.891.219a23.888,23.888,0,0,1-7.019-4.332,26.308,26.308,0,0,1-4.856-6.044c-.509-.873-.055-1.346.383-1.782.391-.39.873-1.018,1.309-1.528a6,6,0,0,0,.873-1.456,1.608,1.608,0,0,0-.073-1.528c-.219-.437-1.914-4.754-2.691-6.48-.654-1.453-1.343-1.482-1.965-1.508-.508-.022-1.091-.021-1.672-.021a3.206,3.206,0,0,0-2.327,1.092,9.783,9.783,0,0,0-3.056,7.279c0,4.295,3.129,8.444,3.564,9.027s6.039,9.676,14.911,13.175c7.373,2.908,8.874,2.329,10.474,2.183s5.164-2.11,5.892-4.149a7.3,7.3,0,0,0,.509-4.15c-.219-.363-.8-.582-1.673-1.018Zm0,0" transform="translate(-159.247 -163.153)" fill="#fff" fill-rule="evenodd"/>
    </g>
  </g>
</svg>
